<?xml version="1.0" encoding="iso-8859-1"?>
<!-- Generator: Adobe Illustrator 16.0.0, SVG Export Plug-In . SVG Version: 6.00 Build 0)  -->
<!DOCTYPE svg PUBLIC "-//W3C//DTD SVG 1.1//EN" "http://www.w3.org/Graphics/SVG/1.1/DTD/svg11.dtd">
<svg version="1.1" id="Capa_1" xmlns="http://www.w3.org/2000/svg" xmlns:xlink="http://www.w3.org/1999/xlink" x="0px" y="0px"
	 width="44.236px" height="44.236px" viewBox="0 0 44.236 44.236" style="enable-background:new 0 0 44.236 44.236;"
	 xml:space="preserve">
<g>
	<g>
		<path d="M22.119,44.236C9.922,44.236,0,34.314,0,22.119C0,9.923,9.922,0,22.119,0c12.195,0,22.117,9.923,22.117,22.119
			C44.236,34.314,34.314,44.236,22.119,44.236z M22.119,1.5C10.75,1.5,1.5,10.75,1.5,22.119s9.25,20.617,20.619,20.617
			s20.617-9.248,20.617-20.617S33.488,1.5,22.119,1.5z"/>
		<path d="M16.257,31.038c-1.049,0-1.643-0.25-1.815-0.767c-0.117-0.347,0.007-0.721,0.315-0.953
			c0.853-0.643,1.316-1.307,1.38-1.979c-1.93-1.224-3.16-3.059-3.398-5.091c-0.205-1.746,0.339-3.535,1.531-5.035
			c1.579-1.987,4.114-3.31,6.956-3.627c0.433-0.049,0.871-0.073,1.302-0.073c4.666,0,8.518,2.851,8.96,6.631
			c0.24,2.041-0.311,4.022-1.547,5.58c-1.356,1.709-3.481,2.803-5.98,3.082c-0.43,0.049-0.865,0.072-1.295,0.072l0,0
			c-0.339,0-0.68-0.015-1.016-0.045C19.49,30.874,16.994,31.038,16.257,31.038z M22.527,15.015c-0.375,0-0.758,0.021-1.136,0.063
			c-2.447,0.274-4.615,1.393-5.948,3.07c-0.956,1.202-1.375,2.561-1.215,3.928c0.197,1.68,1.298,3.205,3.021,4.184
			c0.21,0.119,0.35,0.332,0.375,0.571c0.076,0.701-0.053,1.667-0.897,2.685c1.235-0.113,2.842-0.679,4.106-1.984
			c0.163-0.17,0.397-0.252,0.63-0.223c0.394,0.047,0.797,0.071,1.199,0.071l0,0c0.374,0,0.753-0.021,1.128-0.062
			c2.13-0.238,3.851-1.112,4.974-2.526c0.985-1.241,1.424-2.829,1.23-4.472C29.643,17.296,26.432,15.015,22.527,15.015z"/>
	</g>
</g>
<g>
</g>
<g>
</g>
<g>
</g>
<g>
</g>
<g>
</g>
<g>
</g>
<g>
</g>
<g>
</g>
<g>
</g>
<g>
</g>
<g>
</g>
<g>
</g>
<g>
</g>
<g>
</g>
<g>
</g>
</svg>
