<?xml version="1.0" encoding="iso-8859-1"?>
<!-- Generator: Adobe Illustrator 16.0.0, SVG Export Plug-In . SVG Version: 6.00 Build 0)  -->
<!DOCTYPE svg PUBLIC "-//W3C//DTD SVG 1.1//EN" "http://www.w3.org/Graphics/SVG/1.1/DTD/svg11.dtd">
<svg version="1.1" id="Capa_1" xmlns="http://www.w3.org/2000/svg" xmlns:xlink="http://www.w3.org/1999/xlink" x="0px" y="0px"
	 width="44.236px" height="44.236px" viewBox="0 0 44.236 44.236" style="enable-background:new 0 0 44.236 44.236;"
	 xml:space="preserve">
<g>
	<g>
		<path d="M22.118,44.236C9.922,44.236,0,34.314,0,22.119C0,9.923,9.922,0,22.118,0s22.118,9.922,22.118,22.119
			S34.314,44.236,22.118,44.236z M22.118,1.5C10.749,1.5,1.5,10.75,1.5,22.119s9.249,20.619,20.618,20.619
			c11.368,0,20.618-9.25,20.618-20.619S33.486,1.5,22.118,1.5z"/>
		<g>
			<g>
				<path d="M14.042,31.346c-0.192,0-0.384-0.072-0.53-0.22c-0.293-0.293-0.293-0.769,0-1.062l10.163-10.163
					c0.293-0.293,0.769-0.293,1.062,0s0.293,0.768,0,1.061L14.572,31.126C14.426,31.271,14.234,31.346,14.042,31.346z"/>
			</g>
			<path d="M18.753,31.352L18.753,31.352l-4.712-0.006c-0.413,0-0.749-0.336-0.749-0.75l-0.004-4.709c0-0.414,0.335-0.75,0.749-0.75
				c0.001,0,0.001,0,0.001,0c0.414,0,0.75,0.336,0.75,0.75l0.003,3.961l3.963,0.004c0.414,0,0.749,0.336,0.749,0.752
				C19.503,31.016,19.167,31.352,18.753,31.352z"/>
		</g>
		<g>
			<path d="M24.205,21.183c-0.191,0-0.385-0.073-0.53-0.22c-0.293-0.293-0.293-0.768,0-1.061l6.224-6.222
				c0.293-0.293,0.768-0.293,1.061,0s0.293,0.768,0,1.061l-6.223,6.222C24.589,21.11,24.396,21.183,24.205,21.183z"/>
		</g>
		<path d="M30.432,19.67c-0.414,0-0.75-0.335-0.75-0.75l-0.002-3.961l-3.964-0.004c-0.414,0-0.749-0.336-0.749-0.751
			c0-0.414,0.336-0.749,0.75-0.749h0.001l4.712,0.005c0.412,0,0.748,0.336,0.748,0.75l0.004,4.709
			C31.182,19.334,30.848,19.67,30.432,19.67L30.432,19.67z"/>
	</g>
</g>
<g>
</g>
<g>
</g>
<g>
</g>
<g>
</g>
<g>
</g>
<g>
</g>
<g>
</g>
<g>
</g>
<g>
</g>
<g>
</g>
<g>
</g>
<g>
</g>
<g>
</g>
<g>
</g>
<g>
</g>
</svg>
