<?xml version="1.0" encoding="iso-8859-1"?>
<!-- Generator: Adobe Illustrator 16.0.0, SVG Export Plug-In . SVG Version: 6.00 Build 0)  -->
<!DOCTYPE svg PUBLIC "-//W3C//DTD SVG 1.1//EN" "http://www.w3.org/Graphics/SVG/1.1/DTD/svg11.dtd">
<svg version="1.1" id="Capa_1" xmlns="http://www.w3.org/2000/svg" xmlns:xlink="http://www.w3.org/1999/xlink" x="0px" y="0px"
	 width="44.238px" height="44.238px" viewBox="0 0 44.238 44.238" style="enable-background:new 0 0 44.238 44.238;"
	 xml:space="preserve">
<g>
	<g>
		<path d="M22.119,44.238c-12.196,0-22.118-9.924-22.118-22.119C0.001,9.923,9.923,0,22.119,0s22.118,9.923,22.118,22.119
			C44.237,34.314,34.315,44.238,22.119,44.238z M22.119,1.5c-11.368,0-20.618,9.25-20.618,20.619s9.25,20.619,20.618,20.619
			c11.37,0,20.618-9.25,20.618-20.619S33.489,1.5,22.119,1.5z"/>
		<path d="M16.196,29.652c-2.536,0-4.599-2.062-4.599-4.6c0-1.686,0.909-3.209,2.355-4.015c0.06-3.568,2.981-6.453,6.564-6.453
			c2.241,0,4.333,1.168,5.526,3.033c0.426-0.186,0.885-0.281,1.357-0.281c1.894,0,3.434,1.54,3.434,3.433
			c0,0.156-0.012,0.312-0.031,0.465c1.147,0.88,1.842,2.26,1.842,3.719c0,2.544-2.07,4.646-4.615,4.687l-11.622,0.002
			C16.334,29.648,16.266,29.652,16.196,29.652z M20.516,16.086c-2.793,0-5.065,2.271-5.065,5.064c0,0.068,0.005,0.136,0.01,0.204
			c0,0.002,0.006,0.1,0.006,0.102c0.019,0.318-0.166,0.614-0.461,0.736c-1.16,0.481-1.909,1.604-1.909,2.861
			c0,1.709,1.39,3.1,3.099,3.1l0.111-0.006l11.631-0.004c1.795-0.029,3.203-1.459,3.203-3.188c0-1.117-0.6-2.166-1.563-2.739
			c-0.3-0.178-0.438-0.538-0.332-0.871c0.058-0.183,0.087-0.375,0.087-0.573c0-1.065-0.867-1.933-1.934-1.933
			c-0.428,0-0.836,0.141-1.182,0.407c-0.18,0.139-0.41,0.191-0.633,0.137c-0.221-0.053-0.404-0.202-0.503-0.407
			C24.247,17.22,22.454,16.086,20.516,16.086z"/>
	</g>
</g>
<g>
</g>
<g>
</g>
<g>
</g>
<g>
</g>
<g>
</g>
<g>
</g>
<g>
</g>
<g>
</g>
<g>
</g>
<g>
</g>
<g>
</g>
<g>
</g>
<g>
</g>
<g>
</g>
<g>
</g>
</svg>
